<svg width="30" height="30" viewBox="0 0 30 30" fill="none" xmlns="http://www.w3.org/2000/svg">
<circle cx="15" cy="15" r="14" fill="#50E3C2" stroke="#50E3C2"/>
<path d="M13.7595 19.7569C13.6584 19.8551 13.5205 19.9099 13.3773 19.9099C13.2341 19.9099 13.0962 19.8551 12.9951 19.7569L9.94266 16.8082C9.62588 16.5022 9.62588 16.006 9.94266 15.7006L10.3249 15.3314C10.6417 15.0254 11.1548 15.0254 11.4716 15.3314L13.3773 17.1722L18.5268 12.1982C18.8437 11.8923 19.3572 11.8923 19.6735 12.1982L20.0557 12.5675C20.3725 12.8735 20.3725 13.3695 20.0557 13.675C20.0557 13.675 18.8193 14.8693 18.2012 15.4665C16.7206 16.8966 13.7595 19.7569 13.7595 19.7569Z" fill="white"/>
</svg>