<svg xmlns="http://www.w3.org/2000/svg" width="20" height="20" viewBox="0 0 20 20">
    <path fill="#B1ABAB" stroke="#FFF" stroke-width=".4" d="M9.1 15.4h1.8v-1.8H9.1v1.8M10 1c-4.97 0-9 4.03-9 9 0 2.387.948 4.676 2.636 6.364C5.324 18.052 7.613 19 10 19s4.676-.948 6.364-2.636C18.052 14.676 19 12.387 19 10s-.948-4.676-2.636-6.364C14.676 1.948 12.387 1 10 1m0 16.2c-3.969 0-7.2-3.231-7.2-7.2 0-3.969 3.231-7.2 7.2-7.2 3.969 0 7.2 3.231 7.2 7.2 0 3.969-3.231 7.2-7.2 7.2m0-12.6c-1.988 0-3.6 1.612-3.6 3.6h1.8c0-.994.806-1.8 1.8-1.8s1.8.806 1.8 1.8c0 1.8-2.7 1.575-2.7 4.5h1.8c0-2.025 2.7-2.25 2.7-4.5 0-1.988-1.612-3.6-3.6-3.6z"/>
</svg>
