<svg width="110" height="39" viewBox="0 0 110 39" fill="none" xmlns="http://www.w3.org/2000/svg">
<path d="M0.780396 0.69804H10.2806V11.5497C11.0131 10.5902 11.9517 9.74491 13.1192 9.01385C14.2867 8.28279 15.6602 7.91726 17.2855 7.91726C19.712 7.91726 21.635 8.67117 23.0314 10.1561C24.4278 11.6411 25.1146 13.6972 25.1146 16.3245V31.5168H15.6144V19.4086C15.6144 18.4263 15.3626 17.6495 14.859 17.1012C14.3553 16.5529 13.7372 16.2788 13.0047 16.2788C12.2722 16.2788 11.6541 16.5529 11.1047 17.1012C10.5553 17.6495 10.2806 18.4263 10.2806 19.4086V31.5168H0.780396V0.69804Z" fill="white"/>
<path d="M36.0798 32.0194C33.6533 32.0194 31.7303 31.2655 30.3339 29.7805C28.9375 28.2956 28.2279 26.2395 28.2279 23.6122V8.41987H37.728V20.5281C37.728 21.5104 37.9798 22.2872 38.4835 22.8355C38.9871 23.3838 39.6052 23.6579 40.3377 23.6579C41.0702 23.6579 41.6883 23.3838 42.2377 22.8355C42.7871 22.2872 43.0619 21.5104 43.0619 20.5281V8.41987H52.562V31.4483H43.0619V28.3641C42.3293 29.3236 41.3907 30.1689 40.2232 30.9C39.0786 31.6539 37.7051 32.0194 36.0798 32.0194Z" fill="white"/>
<path d="M68.243 38.302C65.702 38.302 63.4128 38.0507 61.3754 37.5709C59.338 37.0683 57.3922 36.3601 55.5609 35.4463L58.491 29.6663C59.773 30.3517 61.0778 30.8771 62.3827 31.2655C63.6875 31.6539 65.1526 31.8595 66.7321 31.8595C68.5177 31.8595 69.8683 31.4254 70.784 30.5344C71.6997 29.6435 72.1575 28.4098 72.1575 26.8106V26.1252C71.8142 26.4908 71.4479 26.8563 71.0129 27.2447C70.578 27.633 70.0973 27.9529 69.5478 28.2499C68.9984 28.5469 68.4032 28.7982 67.7165 28.9809C67.0526 29.1866 66.3201 29.2779 65.5418 29.2779C64.0538 29.2779 62.7032 29.0266 61.467 28.524C60.2308 28.0214 59.1549 27.2904 58.2392 26.3765C57.3235 25.4399 56.6368 24.3433 56.1332 23.0411C55.6295 21.7389 55.3777 20.2996 55.3777 18.7004V18.609C55.3777 17.0098 55.6295 15.5477 56.1332 14.2227C56.6368 12.8976 57.3235 11.7782 58.2163 10.8187C59.0862 9.88199 60.1164 9.15093 61.3067 8.64832C62.4742 8.14572 63.7333 7.89442 65.0381 7.89442C66.7092 7.89442 68.0828 8.16856 69.1587 8.73971C70.2346 9.31085 71.1961 10.0191 72.0202 10.8872V8.44271H81.5203V25.6455C81.5203 27.793 81.2914 29.5978 80.8336 31.0827C80.3757 32.5677 79.6203 33.8471 78.5444 34.9208C77.5142 35.9717 76.1865 36.7713 74.5383 37.3881C72.913 38.005 70.8069 38.302 68.243 38.302ZM68.4032 22.2872C69.5707 22.2872 70.5093 21.9445 71.1961 21.2363C71.8828 20.5281 72.2262 19.6828 72.2262 18.6547V18.5633C72.2262 17.581 71.8828 16.7357 71.1961 16.0275C70.5093 15.3192 69.5936 14.9766 68.4032 14.9766C67.2358 14.9766 66.2972 15.3421 65.6104 16.0503C64.9237 16.7585 64.5803 17.6267 64.5803 18.6319V18.7232C64.5803 19.7056 64.9237 20.5509 65.6104 21.2363C66.2972 21.9445 67.2358 22.2872 68.4032 22.2872Z" fill="white"/>
<path d="M96.7435 7.78019C89.853 7.78019 84.2674 13.1946 84.2674 19.8884C84.2674 26.5821 89.853 31.9966 96.7435 31.9966C103.634 31.9966 109.22 26.5821 109.22 19.8884C109.197 13.1946 103.634 7.78019 96.7435 7.78019ZM96.6519 23.9777C94.317 23.9777 92.4398 22.1501 92.4398 19.8884C92.4398 17.6267 94.3398 15.799 96.6519 15.799C98.9869 15.799 100.864 17.6267 100.864 19.8884C100.864 22.1501 98.9869 23.9777 96.6519 23.9777Z" fill="white"/>
</svg>
