<svg width="364" height="64" viewBox="0 0 364 64" fill="none" xmlns="http://www.w3.org/2000/svg">
  <path d="M32.1699 62.4916C45.4504 62.4916 52.8125 62.4916 57.5761 57.7273C62.3398 52.9631 62.3398 45.6001 62.3398 32.318C62.3398 19.0358 62.3398 11.6729 57.5761 6.90862C52.8125 2 45.4504 2 32.1699 2C19.0337 2 11.6717 2 6.76367 6.76425C2 11.6729 2 19.0358 2 32.1736C2 45.4558 2 52.8187 6.76367 57.5829C11.6717 62.4916 19.0337 62.4916 32.1699 62.4916Z" stroke="#5B1A8A" stroke-width="2.15588"/>
  <path d="M28.7049 35.7825H39.5314C42.7072 35.7825 45.5943 34.3387 47.6152 32.1732C45.5943 30.0076 42.8515 28.5639 39.5314 28.5639H28.7049C21.1985 28.5639 15.1357 22.9334 14.2695 15.7148V48.4871C15.1357 41.4129 21.1985 35.7825 28.7049 35.7825Z" stroke="#5B1A8A" stroke-width="2.15588"/>
  <path d="M28.7049 28.5659H39.5314C42.7072 28.5659 45.5943 30.0096 47.6152 32.1752C49.7805 29.7208 50.9353 26.2559 50.2136 22.6467C49.2031 17.5937 44.4394 13.9844 39.2427 13.9844H14.2695V15.7168C15.1357 23.0798 21.1985 28.5659 28.7049 28.5659Z" stroke="#5B1A8A" stroke-width="2.15588"/>
  <path d="M50.2136 41.6965C50.9353 37.9428 49.7805 34.6223 47.6152 32.168C45.5943 34.3335 42.8515 35.7772 39.5314 35.7772H28.7049C21.1985 35.7772 14.8079 41.4428 14.2695 48.6263V50.3587H39.2427C44.4394 50.2144 49.2031 46.7495 50.2136 41.6965Z" stroke="#5B1A8A" stroke-width="2.15588"/>
  <path d="M206.956 15.7749C208.544 17.2187 209.266 19.2399 209.266 21.8385C209.266 23.2823 208.977 24.5816 208.255 25.7366C207.534 26.7472 206.523 27.6134 205.224 28.1909V28.3352C208.544 29.4902 210.276 31.9445 210.276 35.6982C210.276 38.4412 209.41 40.6068 207.822 42.0505C206.09 43.6386 203.78 44.3605 200.749 44.3605H187.18V13.6094H200.316C203.059 13.6094 205.368 14.3312 206.956 15.7749ZM199.738 26.8915C201.615 26.8915 202.914 26.4584 203.925 25.5922C204.935 24.726 205.368 23.571 205.368 21.8385C205.368 20.1061 204.935 18.9511 203.925 18.0849C202.914 17.2187 201.615 16.7855 199.738 16.7855H190.933V26.7472H199.738V26.8915ZM204.791 39.5962C205.801 38.73 206.379 37.2863 206.379 35.5538C206.379 33.8214 205.801 32.3776 204.791 31.5114C203.78 30.6452 202.192 30.0677 200.172 30.0677H191.077V41.0399H200.172C202.192 40.8956 203.636 40.4624 204.791 39.5962Z" fill="#5B1A8A"/>
  <path d="M230.774 41.0411C230.052 42.196 229.042 43.2066 227.743 43.7841C226.444 44.506 225.144 44.7947 223.556 44.7947C221.247 44.7947 219.37 44.0729 217.782 42.7735C216.339 41.3298 215.473 39.453 215.473 36.8543V21.6953H219.081V35.555C219.081 37.7205 219.515 39.3086 220.381 40.3192C221.247 41.3298 222.546 41.7629 224.423 41.7629C226.155 41.7629 227.598 41.1854 228.753 39.8861C229.908 38.5868 230.63 36.7099 230.63 34.2556V21.6953H234.239V44.3616H230.774V41.0411Z" fill="#5B1A8A"/>
  <path d="M252.281 25.1597C251.27 24.4379 249.971 24.0048 248.527 24.0048C247.084 24.0048 245.785 24.2935 244.919 25.0154C244.052 25.7372 243.619 26.6035 243.619 27.6141C243.619 28.6247 244.052 29.3465 244.774 29.7796C245.64 30.2127 246.795 30.6459 248.239 30.7902L250.693 31.2233C253.002 31.6565 254.879 32.2339 256.178 33.2445C257.477 34.2551 258.199 35.6988 258.199 37.72C258.199 39.8856 257.333 41.6181 255.601 42.9174C253.868 44.0724 251.703 44.7942 248.96 44.7942C246.218 44.7942 244.052 44.2168 242.176 42.9174C240.444 41.6181 239.433 39.8856 239 37.8644L242.32 37.1426C242.609 38.7306 243.331 40.03 244.63 40.7518C245.785 41.6181 247.228 42.0512 248.96 42.0512C250.548 42.0512 251.992 41.6181 253.002 40.8962C254.013 40.1744 254.59 39.1638 254.59 38.0088C254.59 36.8538 254.157 36.132 253.291 35.6988C252.425 35.2657 251.126 34.8326 249.393 34.5439L247.084 34.1108C244.919 33.6776 243.186 33.1002 242.031 32.2339C240.732 31.3677 240.155 29.924 240.155 27.9028C240.155 26.6035 240.588 25.4485 241.31 24.4379C242.031 23.4273 243.042 22.7054 244.341 22.1279C245.64 21.5505 247.084 21.2617 248.816 21.2617C250.404 21.2617 251.847 21.5505 253.147 22.1279C254.446 22.7054 255.456 23.4273 256.322 24.4379C257.189 25.4485 257.622 26.4591 257.91 27.6141L254.59 28.3359C254.013 26.8922 253.291 25.8816 252.281 25.1597Z" fill="#5B1A8A"/>
  <path d="M266.863 17.2182H263.109V13.1758H266.863V17.2182ZM266.863 44.2156H263.254V21.6937H266.863V44.2156Z" fill="#5B1A8A"/>
  <path d="M276.964 24.8708C277.686 23.7159 278.697 22.8496 279.851 22.1278C281.151 21.4059 282.45 21.1172 284.038 21.1172C286.347 21.1172 288.224 21.839 289.812 23.1384C291.4 24.5821 292.121 26.4589 292.121 29.0576V44.2166H288.513V30.357C288.513 28.1914 288.08 26.6033 287.213 25.5927C286.347 24.5821 285.048 24.149 283.172 24.149C282.017 24.149 281.006 24.4377 280.14 25.0152C279.274 25.5927 278.408 26.4589 277.83 27.4695C277.253 28.4801 276.964 30.0682 276.964 31.6563V44.2166H273.355V21.6947H276.82L276.964 24.8708Z" fill="#5B1A8A"/>
  <path d="M314.065 42.7729C312.477 44.0722 310.167 44.7941 307.28 44.7941C305.259 44.7941 303.383 44.361 301.795 43.3504C300.207 42.3398 299.052 41.0404 298.186 39.1636C297.32 37.4311 296.887 35.2656 296.887 32.9556C296.887 30.6457 297.32 28.4801 298.186 26.7477C299.052 25.0152 300.207 23.5715 301.795 22.5609C303.383 21.5503 305.115 21.1172 307.28 21.1172C309.301 21.1172 311.033 21.5503 312.621 22.5609C314.209 23.4271 315.364 24.8708 316.374 26.6033C317.241 28.3358 317.674 30.5013 317.674 32.8113C317.674 33.2444 317.674 33.5331 317.674 33.8219H300.64C300.64 36.1318 301.362 38.153 302.516 39.5967C303.816 41.0404 305.404 41.7623 307.28 41.7623C309.157 41.7623 310.6 41.3292 311.611 40.4629C312.621 39.5967 313.343 38.5861 313.776 37.2868L317.385 37.7199C316.807 39.7411 315.653 41.4735 314.065 42.7729ZM302.661 26.0258C301.506 27.3252 300.784 28.9132 300.64 30.9344H313.92C313.776 28.9132 313.054 27.3252 311.899 26.0258C310.745 24.7265 309.157 24.0046 307.28 24.0046C305.404 24.149 303.816 24.7265 302.661 26.0258Z" fill="#5B1A8A"/>
  <path d="M334.71 25.1597C333.7 24.4379 332.401 24.0048 330.957 24.0048C329.513 24.0048 328.214 24.2935 327.348 25.0154C326.482 25.7372 326.049 26.6035 326.049 27.6141C326.049 28.6247 326.482 29.3465 327.204 29.7796C328.07 30.2127 329.225 30.6459 330.668 30.7902L333.122 31.2233C335.432 31.6565 337.309 32.2339 338.608 33.2445C339.907 34.1108 340.629 35.6988 340.629 37.72C340.629 39.8856 339.763 41.6181 338.03 42.9174C336.298 44.0724 334.133 44.7942 331.39 44.7942C328.647 44.7942 326.482 44.2168 324.605 42.9174C322.873 41.6181 321.863 39.8856 321.43 37.8644L324.75 37.1426C325.039 38.7306 325.76 40.03 327.059 40.7518C328.214 41.6181 329.658 42.0512 331.39 42.0512C332.978 42.0512 334.421 41.6181 335.432 40.8962C336.442 40.1744 337.02 39.1638 337.02 38.0088C337.02 36.8538 336.587 36.132 335.721 35.6988C334.855 35.2657 333.555 34.8326 331.823 34.5439L329.513 34.1108C327.348 33.6776 325.616 33.1002 324.461 32.2339C323.162 31.3677 322.585 29.924 322.585 27.9028C322.585 26.6035 323.018 25.4485 323.739 24.4379C324.461 23.4273 325.472 22.7054 326.771 22.1279C328.07 21.5505 329.513 21.2617 331.246 21.2617C332.834 21.2617 334.277 21.5505 335.576 22.1279C336.876 22.7054 337.886 23.4273 338.752 24.4379C339.618 25.4485 340.051 26.4591 340.34 27.6141L337.02 28.3359C336.442 26.8922 335.721 25.8816 334.71 25.1597Z" fill="#5B1A8A"/>
  <path d="M357.515 25.1597C356.504 24.4379 355.205 24.0048 353.762 24.0048C352.318 24.0048 351.019 24.2935 350.153 25.0154C349.287 25.7372 348.854 26.6035 348.854 27.6141C348.854 28.6247 349.287 29.3465 350.009 29.7796C350.875 30.2127 352.029 30.6459 353.473 30.7902L355.927 31.2233C358.237 31.6565 360.113 32.2339 361.412 33.2445C362.712 34.1108 363.433 35.6988 363.433 37.72C363.433 39.8856 362.567 41.6181 360.835 42.9174C359.103 44.0724 356.937 44.7942 354.195 44.7942C351.452 44.7942 349.287 44.2168 347.41 42.9174C345.678 41.6181 344.667 39.8856 344.234 37.8644L347.555 37.1426C347.843 38.7306 348.565 40.03 349.72 40.7518C350.875 41.6181 352.318 42.0512 354.05 42.0512C355.638 42.0512 357.082 41.6181 358.092 40.8962C359.103 40.1744 359.68 39.1638 359.68 38.0088C359.68 36.8538 359.247 36.132 358.381 35.6988C357.515 35.2657 356.216 34.8326 354.483 34.5439L352.174 34.1108C350.009 33.6776 348.276 33.1002 347.121 32.2339C345.822 31.3677 345.245 29.924 345.245 27.9028C345.245 26.6035 345.678 25.4485 346.4 24.4379C347.121 23.4273 348.132 22.7054 349.431 22.1279C350.73 21.5505 352.174 21.2617 353.906 21.2617C355.494 21.2617 356.937 21.5505 358.237 22.1279C359.536 22.7054 360.546 23.4273 361.412 24.4379C362.279 25.4485 362.712 26.4591 363 27.6141L359.68 28.3359C359.247 26.8922 358.67 25.8816 357.515 25.1597Z" fill="#5B1A8A"/>
  <path d="M74.4375 13.0312H83.9648V24.0035C84.6866 22.9929 85.6971 22.1266 86.8519 21.4048C88.0067 20.6829 89.4503 20.2498 91.0382 20.2498C93.4922 20.2498 95.3688 20.9717 96.8123 22.5598C98.2558 24.0035 98.9776 26.169 98.9776 28.7677V44.2154H89.4503V31.9439C89.4503 30.9333 89.1616 30.2114 88.7285 29.6339C88.1511 29.0565 87.5737 28.7677 86.8519 28.7677C86.1301 28.7677 85.5527 29.0565 84.9753 29.6339C84.3979 30.2114 84.1092 30.9333 84.1092 31.9439V44.2154H74.5819V13.0312H74.4375Z" fill="#5B1A8A"/>
  <path d="M109.947 44.7939C107.493 44.7939 105.617 44.0721 104.173 42.484C102.73 40.8959 102.008 38.8747 102.008 36.276V20.9727H111.535V33.2442C111.535 34.2548 111.824 34.9767 112.257 35.5542C112.834 36.1316 113.412 36.4204 114.134 36.4204C114.855 36.4204 115.433 36.1316 116.01 35.5542C116.588 34.9767 116.876 34.2548 116.876 33.2442V20.9727H126.548V44.3608H117.021V41.1846C116.299 42.1952 115.288 43.0615 114.134 43.7833C112.979 44.5052 111.535 44.7939 109.947 44.7939Z" fill="#5B1A8A"/>
  <path d="M142.425 51.1495C139.827 51.1495 137.517 50.8608 135.496 50.4277C133.475 49.9946 131.454 49.2727 129.578 48.2621L132.465 42.3429C133.764 43.0647 135.063 43.4978 136.362 43.931C137.662 44.3641 139.105 44.5084 140.693 44.5084C142.425 44.5084 143.869 44.0753 144.735 43.2091C145.601 42.3429 146.178 41.0435 146.178 39.4555V38.7336C145.89 39.1667 145.457 39.4555 145.024 39.8886C144.591 40.3217 144.157 40.6104 143.58 40.8992C143.003 41.1879 142.425 41.4767 141.703 41.621C140.982 41.7654 140.26 41.9098 139.538 41.9098C138.095 41.9098 136.651 41.621 135.496 41.1879C134.197 40.6104 133.187 39.8886 132.176 39.0223C131.31 38.1561 130.588 37.0011 130.011 35.7018C129.433 34.4025 129.289 32.9587 129.289 31.3707V31.2263C129.289 29.6382 129.578 28.0501 130.011 26.7508C130.588 25.4514 131.166 24.2965 132.032 23.2859C132.898 22.2753 133.908 21.5534 135.063 21.1203C136.218 20.5428 137.517 20.3984 138.816 20.3984C140.549 20.3984 141.848 20.6872 143.003 21.2647C144.157 21.8422 145.024 22.564 145.89 23.4302V20.9759H155.417V38.4449C155.417 40.6104 155.128 42.4872 154.695 43.931C154.262 45.3747 153.396 46.674 152.386 47.829C151.375 48.8396 149.932 49.7058 148.344 50.2833C147.045 50.8608 144.879 51.1495 142.425 51.1495ZM142.57 34.9799C143.724 34.9799 144.735 34.6912 145.312 33.9693C146.034 33.2475 146.323 32.3813 146.323 31.3707V31.2263C146.323 30.2157 146.034 29.3495 145.312 28.6276C144.591 27.9057 143.724 27.617 142.57 27.617C141.415 27.617 140.404 28.0501 139.827 28.772C139.105 29.4938 138.816 30.3601 138.816 31.3707C138.816 32.3813 139.105 33.2475 139.827 33.9693C140.404 34.5468 141.415 34.9799 142.57 34.9799Z" fill="#5B1A8A"/>
  <path d="M171.008 20.2539C164.079 20.2539 158.449 25.74 158.449 32.5255C158.449 39.3109 164.079 44.797 171.008 44.797C177.937 44.797 183.567 39.3109 183.567 32.5255C183.567 25.74 177.937 20.2539 171.008 20.2539ZM171.008 36.7122C168.698 36.7122 166.822 34.8354 166.822 32.5255C166.822 30.2155 168.698 28.3387 171.008 28.3387C173.318 28.3387 175.194 30.2155 175.194 32.5255C175.194 34.8354 173.318 36.7122 171.008 36.7122Z" fill="#5B1A8A"/>
</svg>
