<svg xmlns="http://www.w3.org/2000/svg" width="149" height="148" fill="none" viewBox="0 0 149 148">
    <path fill="#EEE3F9" d="M35.684 88.197h43.629l21.814-37.787-21.814-37.787h-43.63L13.87 50.41l21.815 37.787z"/>
    <path stroke="#F8F4FD" stroke-linecap="round" stroke-linejoin="round" stroke-width="2" d="M83.496 95.434l16.705-28.94 9.287-16.084M5.508 50.41l25.998 45.024M83.49 5.387H31.506M113.777 50.41h-8.039M9.797 50.41h-8.04M85.77 1.906l-4.02 6.961M33.78 91.953l-4.02 6.961M85.77 98.914l-4.02-6.96M33.78 8.867l-4.02-6.96M85.904 50.41h-1.722"/>
    <path stroke="#F8F4FD" stroke-dasharray="1.01 .76 2.53 1.01" stroke-linecap="round" stroke-linejoin="round" stroke-width="2" d="M82.7 50.41h-2.813"/>
    <path stroke="#F8F4FD" stroke-linecap="round" stroke-linejoin="round" stroke-width="2" d="M79.588 50.41h-1.723M29.092 50.41h1.723"/>
    <path stroke="#F8F4FD" stroke-dasharray="1.01 .76 2.53 1.01" stroke-linecap="round" stroke-linejoin="round" stroke-width="2" d="M32.297 50.41h2.812"/>
    <path stroke="#F8F4FD" stroke-linecap="round" stroke-linejoin="round" stroke-width="2" d="M35.408 50.41h1.723M43.295 75.014l.861-1.495"/>
    <path stroke="#F8F4FD" stroke-dasharray="1.01 .76 2.53 1.01" stroke-linecap="round" stroke-linejoin="round" stroke-width="2" d="M44.9 72.236l1.407-2.437"/>
    <path stroke="#F8F4FD" stroke-linecap="round" stroke-linejoin="round" stroke-width="2" d="M46.453 69.541l.861-1.488M71.701 25.813L70.84 27.3"/>
    <path stroke="#F8F4FD" stroke-dasharray="1.01 .76 2.53 1.01" stroke-linecap="round" stroke-linejoin="round" stroke-width="2" d="M70.102 28.584l-1.413 2.443"/>
    <path stroke="#F8F4FD" stroke-linecap="round" stroke-linejoin="round" stroke-width="2" d="M68.543 31.28l-.861 1.493M43.295 25.813l.861 1.488"/>
    <path stroke="#F8F4FD" stroke-dasharray="1.01 .76 2.53 1.01" stroke-linecap="round" stroke-linejoin="round" stroke-width="2" d="M44.9 28.584l1.407 2.443"/>
    <path stroke="#F8F4FD" stroke-linecap="round" stroke-linejoin="round" stroke-width="2" d="M46.453 31.28l.861 1.493M71.701 75.014l-.861-1.495"/>
    <path stroke="#F8F4FD" stroke-dasharray="1.01 .76 2.53 1.01" stroke-linecap="round" stroke-linejoin="round" stroke-width="2" d="M70.102 72.236L68.689 69.8"/>
    <path stroke="#F8F4FD" stroke-linecap="round" stroke-linejoin="round" stroke-width="2" d="M68.543 69.541l-.861-1.488M78.568 29.346l-4.453-7.711H65.21M86.28 58.121l4.447-7.71-4.448-7.712M65.209 79.191h8.906l4.453-7.71M36.434 71.48l4.453 7.711h8.9M49.787 21.635h-8.9l-4.453 7.71M28.723 42.7l-4.453 7.71 4.453 7.711M68.637 69.705L79.78 50.41 68.637 31.115M46.36 31.115L35.22 50.41l11.14 19.295"/>
    <path fill="#EEE3F9" d="M95.443 145.543c5.531 0 10.014-4.483 10.014-10.014 0-5.53-4.483-10.013-10.014-10.013-5.53 0-10.013 4.483-10.013 10.013 0 5.531 4.483 10.014 10.013 10.014z"/>
    <path stroke="#F8F4FD" stroke-linecap="round" stroke-linejoin="round" stroke-width="2" d="M95.443 127.197v.768M95.443 143.094v.767M103.775 135.529h-.767M87.879 135.529h-.768"/>
    <path fill="#F8F4FD" d="M90.094 140.879l4.008-6.686 6.691-4.013-4.014 6.685-6.685 4.014z"/>
    <path fill="#EEE3F9" d="M118.992 145.543c5.531 0 10.014-4.483 10.014-10.014 0-5.53-4.483-10.013-10.014-10.013-5.53 0-10.013 4.483-10.013 10.013 0 5.531 4.483 10.014 10.013 10.014z"/>
    <path stroke="#F8F4FD" stroke-linecap="round" stroke-linejoin="round" stroke-width="2" d="M118.992 127.197v.768M118.992 143.094v.767M127.324 135.529h-.767M111.428 135.529h-.768"/>
    <path fill="#F8F4FD" d="M113.643 140.879l4.013-6.686 6.686-4.013-4.008 6.685-6.691 4.014z"/>
    <path stroke="#F8F4FD" stroke-linecap="round" stroke-linejoin="round" stroke-width="2" d="M86.203 11.674h16.371c.99 0 1.939.393 2.639 1.093.7.7 1.094 1.65 1.094 2.64v0c0 .99-.394 1.939-1.094 2.639-.7.7-1.649 1.093-2.639 1.093h-6.885c-.636 0-1.262.162-1.818.471-.556.31-1.023.757-1.358 1.298-.335.542-.526 1.16-.554 1.795-.029.636.106 1.269.39 1.838l4.33 8.62c.31.62.788 1.14 1.378 1.505.59.364 1.27.557 1.963.557h6.884"/>
    <path fill="#EEE3F9" d="M141.756 62.51l2.432-.815.808-2.431.815 2.431 2.431.815-2.431.808-.815 2.432-.808-2.432-2.432-.808zM141.756 70.484l2.432-.814.808-2.432.815 2.432 2.431.814-2.431.809-.815 2.432-.808-2.432-2.432-.809zM141.756 78.693l2.432-.814.808-2.432.815 2.432 2.431.814-2.431.809-.815 2.432-.808-2.432-2.432-.809zM141.756 99.682l2.432-.809.808-2.438.815 2.438 2.431.809-2.431.814-.815 2.432-.808-2.432-2.432-.814zM141.756 107.656l2.432-.808.808-2.432.815 2.432 2.431.808-2.431.815-.815 2.431-.808-2.431-2.432-.815zM141.756 115.865l2.432-.808.808-2.432.815 2.432 2.431.808-2.431.815-.815 2.431-.808-2.431-2.432-.815z"/>
    <path stroke="#F8F4FD" stroke-linecap="round" stroke-linejoin="round" stroke-width="2" d="M130.002 4.93h13.031M130.002 9.453h13.031M130.002 13.97h7.5"/>
    <path fill="#F8F4FD" d="M116.367 17.234c-.258 0-.505-.102-.688-.285-.182-.182-.284-.43-.284-.687V7.73c-.001.129.023.256.072.374.048.12.12.227.21.318.091.091.198.163.317.212.118.05.245.075.373.075h10.307v8.525h-10.307z"/>
    <path fill="#EEE3F9" d="M116.367 1.666c-.128 0-.255.025-.373.075-.119.049-.226.121-.317.212-.09.09-.162.199-.21.318-.049.118-.073.245-.072.374v13.687c0-.258.102-.505.284-.688.183-.182.43-.285.688-.285h10.307V1.666h-10.307z"/>
    <path fill="#F8F4FD" d="M125.344 3.934h-7.957v4.212h7.957V3.934z"/>
    <path stroke="#F8F4FD" stroke-linecap="round" stroke-linejoin="round" stroke-width="2" d="M118.881 9.805h4.963M118.242 11.387h6.24M119.607 12.975h3.51M130.002 22.613h13.031M130.002 27.137h13.031M130.002 31.654h7.5"/>
    <path fill="#F8F4FD" d="M116.367 34.918c-.258 0-.505-.102-.688-.285-.182-.182-.284-.43-.284-.688v-8.53c-.001.127.023.254.072.373.048.119.12.227.21.318.091.09.198.163.317.212.118.05.245.075.373.075h10.307v8.525h-10.307z"/>
    <path fill="#EEE3F9" d="M116.367 19.35c-.128 0-.255.025-.373.074-.119.05-.226.122-.317.213-.09.09-.162.198-.21.317-.049.119-.073.246-.072.374v13.688c0-.258.102-.506.284-.688.183-.183.43-.285.688-.285h10.307V19.35h-10.307z"/>
    <path fill="#F8F4FD" d="M125.344 21.617h-7.957v4.213h7.957v-4.213z"/>
    <path stroke="#F8F4FD" stroke-linecap="round" stroke-linejoin="round" stroke-width="2" d="M118.881 27.488h4.963M118.242 29.07h6.24M119.607 30.652h3.51"/>
    <path fill="#EEE3F9" d="M137.502 54.002c5.09 0 9.217-4.127 9.217-9.217 0-5.09-4.127-9.217-9.217-9.217-5.09 0-9.217 4.127-9.217 9.217 0 5.09 4.127 9.217 9.217 9.217z"/>
    <path stroke="#F8F4FD" stroke-linecap="round" stroke-linejoin="round" stroke-width="2" d="M137.502 54.002c2.055 0 3.721-4.127 3.721-9.217 0-5.09-1.666-9.217-3.721-9.217s-3.721 4.127-3.721 9.217c0 5.09 1.666 9.217 3.721 9.217z"/>
    <path stroke="#F8F4FD" stroke-linecap="round" stroke-linejoin="round" stroke-width="2" d="M137.502 41.51c3.744 0 6.779-1.33 6.779-2.97 0-1.642-3.035-2.972-6.779-2.972-3.744 0-6.779 1.33-6.779 2.971 0 1.64 3.035 2.97 6.779 2.97zM137.502 54.002c3.744 0 6.779-1.33 6.779-2.97 0-1.641-3.035-2.971-6.779-2.971-3.744 0-6.779 1.33-6.779 2.97 0 1.64 3.035 2.971 6.779 2.971zM128.279 44.785h18.44"/>
    <path stroke="#F8F4FD" stroke-linecap="round" stroke-linejoin="round" stroke-width="2" d="M137.502 54.002c5.09 0 9.217-4.127 9.217-9.217 0-5.09-4.127-9.217-9.217-9.217-5.09 0-9.217 4.127-9.217 9.217 0 5.09 4.127 9.217 9.217 9.217z"/>
    <path fill="#EEE3F9" d="M12.188 1.344c1.37 0 2.725.27 3.99.794 1.266.524 2.416 1.292 3.384 2.26.969.969 1.737 2.119 2.261 3.384.524 1.266.794 2.622.794 3.991v13.008c.002 1.371-.266 2.729-.789 3.996s-1.29 2.419-2.26 3.389c-.969.97-2.12 1.739-3.386 2.263-1.266.525-2.624.794-3.994.794-1.371 0-2.729-.27-3.995-.794-1.267-.524-2.417-1.294-3.386-2.264-.97-.97-1.737-2.12-2.26-3.388-.523-1.267-.791-2.625-.79-3.996v-13.02c.004-2.763 1.104-5.413 3.06-7.367 1.955-1.953 4.606-3.05 7.37-3.05z"/>
    <path fill="#EEE3F9" d="M18.967 20.463l-.557 5.033c-.11.992-.455 1.944-1.008 2.776-.552.832-1.296 1.52-2.168 2.005-.93.516-1.977.787-3.04.787-1.065 0-2.111-.27-3.042-.787-.874-.484-1.619-1.171-2.173-2.003-.553-.832-.9-1.785-1.008-2.778l-.586-5.033c-.116-1.052-.514-2.053-1.152-2.897-.639-.844-1.494-1.5-2.475-1.896v9.111c0 2.766 1.099 5.42 3.055 7.375 1.956 1.956 4.608 3.055 7.375 3.055 2.766 0 5.418-1.099 7.374-3.055 1.956-1.956 3.055-4.609 3.055-7.375V15.67c-.985.393-1.845 1.047-2.488 1.891-.643.844-1.045 1.847-1.162 2.902z"/>
    <path stroke="#F8F4FD" stroke-linecap="round" stroke-linejoin="round" stroke-width="2" d="M12.188 1.344c1.37 0 2.725.27 3.99.794 1.266.524 2.416 1.292 3.384 2.26.969.969 1.737 2.119 2.261 3.384.524 1.266.794 2.622.794 3.991v13.008c.002 1.371-.266 2.729-.789 3.996s-1.29 2.419-2.26 3.389c-.969.97-2.12 1.739-3.386 2.263-1.266.525-2.624.794-3.994.794v0c-1.371 0-2.729-.27-3.995-.794-1.267-.524-2.417-1.294-3.386-2.264-.97-.97-1.737-2.12-2.26-3.388-.523-1.267-.791-2.625-.79-3.996v-13.02c.004-2.763 1.104-5.413 3.06-7.367 1.955-1.953 4.606-3.05 7.37-3.05v0z"/>
    <path fill="#F8F4FD" d="M18.967 20.463l-.557 5.033c-.11.992-.455 1.944-1.008 2.776-.552.832-1.296 1.52-2.168 2.005-.93.516-1.977.787-3.04.787-1.065 0-2.111-.27-3.042-.787-.874-.484-1.619-1.171-2.173-2.003-.553-.832-.9-1.785-1.008-2.778l-.586-5.033c-.116-1.052-.514-2.053-1.152-2.897-.639-.844-1.494-1.5-2.475-1.896v9.111c0 2.766 1.099 5.42 3.055 7.375 1.956 1.956 4.608 3.055 7.375 3.055 2.766 0 5.418-1.099 7.374-3.055 1.956-1.956 3.055-4.609 3.055-7.375V15.67c-.985.393-1.845 1.047-2.488 1.891-.643.844-1.045 1.847-1.162 2.902z"/>
    <path stroke="#F8F4FD" stroke-linecap="round" stroke-linejoin="round" stroke-width="2" d="M12.188 1.332v15.709"/>
    <path fill="#F8F4FD" d="M12.188 6.547c.256 0 .51.05.747.149.238.098.453.243.634.424.181.182.325.398.423.635.098.238.147.492.147.749v4.559c0 .256-.05.51-.147.748-.098.237-.242.453-.423.635s-.396.326-.634.425c-.237.098-.49.149-.748.149-.257 0-.511-.05-.75-.148-.237-.098-.453-.242-.635-.424s-.326-.398-.424-.636c-.098-.237-.148-.492-.148-.75V8.505c0-.257.05-.512.148-.75.098-.238.242-.454.424-.636s.398-.326.636-.424c.237-.098.492-.148.75-.147zM12.188 25.813c.695 0 1.26-.564 1.26-1.26 0-.696-.565-1.26-1.26-1.26-.696 0-1.26.564-1.26 1.26 0 .695.564 1.26 1.26 1.26z"/>
    <path stroke="#F8F4FD" stroke-linecap="round" stroke-linejoin="round" stroke-width="2" d="M31.242 138.383c3.774 0 3.774 4.594 7.547 4.594 3.773 0 3.768-4.594 7.541-4.594 3.773 0 3.773 4.594 7.547 4.594 3.773 0 3.773-4.594 7.547-4.594 3.773 0 3.773 4.594 7.553 4.594 3.779 0 3.773-4.594 7.546-4.594"/>
    <path stroke="#EEE3F9" stroke-linecap="round" stroke-linejoin="round" stroke-width="2" d="M2.93 136.865c0-6.082 4.593-6.082 4.593-12.17s-4.593-6.088-4.593-12.17 4.57-6.088 4.57-12.158c0-6.07-4.57-6.1-4.57-12.187 0-6.088 4.593-6.088 4.593-12.17S2.93 69.898 2.93 63.834"/>
    <path fill="#EEE3F9" d="M68.906 118.742h52.114l18.257 12.17V57.881h-70.37v60.861z"/>
    <path stroke="#F8F4FD" stroke-linecap="round" stroke-linejoin="round" stroke-width="2" d="M82.969 73.022h5.138M82.969 75.74h5.138M82.969 78.465h2.824M82.969 62.732h5.138M82.969 65.457h5.138M82.969 68.182h2.824M78.861 67.502c1.13 0 2.045-.916 2.045-2.045 0-1.13-.915-2.045-2.045-2.045s-2.045.916-2.045 2.045c0 1.13.916 2.045 2.045 2.045zM78.861 77.785c1.13 0 2.045-.915 2.045-2.045s-.915-2.045-2.045-2.045-2.045.916-2.045 2.045c0 1.13.916 2.045 2.045 2.045zM78.861 67.502v6.193M101.953 73.022h5.139M101.953 75.74h5.139M101.953 78.465h2.824M101.953 62.732h5.139M101.953 65.457h5.139M101.953 68.182h2.824M97.846 67.502c1.13 0 2.045-.916 2.045-2.045 0-1.13-.916-2.045-2.045-2.045-1.13 0-2.045.916-2.045 2.045 0 1.13.915 2.045 2.045 2.045zM97.846 77.785c1.13 0 2.045-.915 2.045-2.045s-.916-2.045-2.045-2.045c-1.13 0-2.045.916-2.045 2.045 0 1.13.915 2.045 2.045 2.045zM97.846 67.502v6.193"/>
    <path fill="#fff" d="M75.023 57.88h-6.117v60.862h6.117V57.881z"/>
    <path fill="#BB8DE7" d="M87.621 96.441c3.747 0 6.785-3.037 6.785-6.785 0-3.747-3.038-6.785-6.785-6.785-3.747 0-6.785 3.038-6.785 6.785 0 3.748 3.038 6.785 6.785 6.785zM104.52 96.441c3.747 0 6.785-3.037 6.785-6.785 0-3.747-3.038-6.785-6.785-6.785-3.748 0-6.786 3.038-6.786 6.785 0 3.748 3.038 6.785 6.786 6.785zM121.424 96.441c3.747 0 6.785-3.037 6.785-6.785 0-3.747-3.038-6.785-6.785-6.785-3.748 0-6.785 3.038-6.785 6.785 0 3.748 3.037 6.785 6.785 6.785z"/>
    <path fill="#F8F4FD" d="M132.744 57.88v68.679l6.533 4.353V57.881h-6.533z"/>
    <path stroke="#5B1A8A" stroke-linecap="round" stroke-linejoin="round" stroke-width="2" d="M68.906 118.742h52.114l18.257 12.17V57.881h-70.37v60.861z"/>
    <path fill="#A87FD0" d="M80.52 134.498H28.405l-18.258 12.17V73.637H80.52v60.861z"/>
    <path fill="#BB8DE7" d="M80.514 73.637h-7.407v60.861h7.407V73.637z"/>
    <path stroke="#5B1A8A" stroke-linecap="round" stroke-linejoin="round" stroke-width="2" d="M80.52 134.498H28.405l-18.258 12.17V73.637H80.52v60.861z"/>
    <path fill="#F8F4FD" d="M18.838 87.951c.922 0 1.67-.747 1.67-1.67 0-.922-.748-1.67-1.67-1.67-.922 0-1.67.748-1.67 1.67 0 .922.748 1.67 1.67 1.67z"/>
    <path stroke="#F8F4FD" stroke-linecap="round" stroke-linejoin="round" stroke-width="2" d="M21.96 90.852v-9.147"/>
    <path stroke="#BB8DE7" stroke-linecap="round" stroke-linejoin="round" stroke-width="2" d="M23.965 90.852h7.277M23.965 89.023h2.9M23.965 87.195h5.191M23.965 85.367h4.166M23.965 83.533h7.277M23.965 81.705h2.9"/>
    <path fill="#F8F4FD" d="M38.467 87.951c.922 0 1.67-.747 1.67-1.67 0-.922-.748-1.67-1.67-1.67-.922 0-1.67.748-1.67 1.67 0 .922.748 1.67 1.67 1.67z"/>
    <path stroke="#F8F4FD" stroke-linecap="round" stroke-linejoin="round" stroke-width="2" d="M41.59 90.852v-9.147"/>
    <path stroke="#BB8DE7" stroke-linecap="round" stroke-linejoin="round" stroke-width="2" d="M43.594 90.852h7.277M43.594 89.023h2.9M43.594 87.195h5.191M43.594 85.367h4.166M43.594 83.533h7.277M43.594 81.705h2.9"/>
    <path stroke="#F8F4FD" stroke-linecap="round" stroke-linejoin="round" stroke-width="2" d="M136.014 74.844h-15.868v3.07h15.868v-3.07z"/>
    <path fill="#fff" d="M117.967 76.877c.569 0 1.031-.462 1.031-1.031 0-.57-.462-1.032-1.031-1.032-.57 0-1.031.462-1.031 1.032 0 .57.461 1.031 1.031 1.031z"/>
    <path fill="#F8F4FD" d="M131.484 78.652h-2.091c-.285 0-.516.231-.516.516 0 .285.231.516.516.516h2.091c.285 0 .516-.231.516-.516 0-.285-.231-.516-.516-.516zM135.492 78.652H133.4c-.284 0-.515.231-.515.516 0 .285.231.516.515.516h2.092c.285 0 .516-.231.516-.516 0-.285-.231-.516-.516-.516z"/>
    <path stroke="#F8F4FD" stroke-linecap="round" stroke-linejoin="round" stroke-width="2" d="M136.014 68.568h-15.868v3.07h15.868v-3.07z"/>
    <path fill="#fff" d="M117.967 70.602c.569 0 1.031-.462 1.031-1.032 0-.57-.462-1.03-1.031-1.03-.57 0-1.031.46-1.031 1.03 0 .57.461 1.032 1.031 1.032z"/>
    <path fill="#F8F4FD" d="M131.484 72.377h-2.091c-.285 0-.516.23-.516.516 0 .284.231.515.516.515h2.091c.285 0 .516-.23.516-.515 0-.285-.231-.516-.516-.516zM135.492 72.377H133.4c-.284 0-.515.23-.515.516 0 .284.231.515.515.515h2.092c.285 0 .516-.23.516-.515 0-.285-.231-.516-.516-.516z"/>
    <path stroke="#F8F4FD" stroke-linecap="round" stroke-linejoin="round" stroke-width="2" d="M136.014 62.299h-15.868v3.07h15.868V62.3z"/>
    <path fill="#fff" d="M117.967 64.332c.569 0 1.031-.462 1.031-1.031 0-.57-.462-1.032-1.031-1.032-.57 0-1.031.462-1.031 1.032 0 .57.461 1.031 1.031 1.031z"/>
    <path fill="#F8F4FD" d="M131.484 66.107h-2.091c-.285 0-.516.231-.516.516 0 .285.231.516.516.516h2.091c.285 0 .516-.231.516-.516 0-.285-.231-.516-.516-.516zM135.492 66.107H133.4c-.284 0-.515.231-.515.516 0 .285.231.516.515.516h2.092c.285 0 .516-.231.516-.516 0-.285-.231-.516-.516-.516z"/>
    <path stroke="#F8F4FD" stroke-linecap="round" stroke-linejoin="round" stroke-width="2" d="M95.531 100.379H83.35v4.512H95.53v-4.512zM110.613 100.379H98.432v4.512h12.181v-4.512zM125.695 100.379h-12.181v4.512h12.181v-4.512z"/>
    <path stroke="#BB8DE7" stroke-linecap="round" stroke-linejoin="round" stroke-width="2" d="M76.289 77.908H64.107v4.512H76.29v-4.512zM76.289 84.025H64.107v4.512H76.29v-4.512zM76.289 90.143H64.107v4.511H76.29v-4.511zM35.438 124.754h2.05M35.438 120.646h2.05M33.797 121.467c.453 0 .82-.367.82-.821 0-.453-.367-.82-.82-.82-.453 0-.82.367-.82.82 0 .454.367.821.82.821zM33.797 125.574c.453 0 .82-.367.82-.82 0-.453-.367-.82-.82-.82-.453 0-.82.367-.82.82 0 .453.367.82.82.82zM33.797 121.461v2.473M42.264 123.664h2.056M42.264 124.754h2.056M42.264 125.838h1.13M42.264 119.557h2.056M42.264 120.646h2.056M42.264 121.73h1.13M40.623 121.467c.453 0 .82-.367.82-.821 0-.453-.367-.82-.82-.82-.453 0-.82.367-.82.82 0 .454.367.821.82.821zM40.623 125.574c.453 0 .82-.367.82-.82 0-.453-.367-.82-.82-.82-.453 0-.82.367-.82.82 0 .453.367.82.82.82zM40.623 121.461v2.473"/>
    <path stroke="#BB8DE7" stroke-linecap="round" stroke-linejoin="round" stroke-width="2" d="M46.453 117.301H19.928v10.793h26.525v-10.793zM21.832 118.795h2.66M21.832 120.441h2.66M21.832 122.094h1.465M26.736 118.795h2.66M26.736 120.441h2.66M26.736 122.094h1.465"/>
    <path fill="#F8F4FD" d="M23.602 126.225v-1.412l-1.22-.704-1.224.704v1.412l1.225.703 1.219-.703zM26.572 126.225v-1.412l-1.218-.704-1.22.704v1.412l1.22.703 1.218-.703zM29.549 126.225v-1.412l-1.219-.704-1.219.704v1.412l1.22.703 1.218-.703z"/>
    <path stroke="#F8F4FD" stroke-linecap="round" stroke-linejoin="round" stroke-width="2" d="M53.701 124.32h3.446M53.701 126.143h3.446M53.701 127.971h1.893M53.701 117.43h3.446M53.701 119.252h3.446M53.701 121.08h1.893M50.947 120.623c.758 0 1.371-.614 1.371-1.371s-.613-1.371-1.37-1.371c-.758 0-1.372.614-1.372 1.371s.614 1.371 1.371 1.371zM50.947 127.514c.758 0 1.371-.614 1.371-1.371 0-.758-.613-1.372-1.37-1.372-.758 0-1.372.614-1.372 1.372 0 .757.614 1.371 1.371 1.371zM50.947 120.623v4.148M63.82 124.32h3.446M63.82 126.143h3.446M63.82 127.971h1.893M63.82 117.43h3.446M63.82 119.252h3.446M63.82 121.08h1.893M61.066 120.623c.758 0 1.371-.614 1.371-1.371s-.613-1.371-1.37-1.371c-.758 0-1.372.614-1.372 1.371s.614 1.371 1.371 1.371zM61.066 127.514c.758 0 1.371-.614 1.371-1.371 0-.758-.613-1.372-1.37-1.372-.758 0-1.372.614-1.372 1.372 0 .757.614 1.371 1.371 1.371zM61.066 120.623v4.148"/>
    <path stroke="#fff" stroke-linecap="round" stroke-linejoin="round" stroke-width="2" d="M96.82 109.9h3.938M96.82 111.986h3.938M96.82 114.078h2.168M93.674 113.557c.867 0 1.57-.703 1.57-1.571 0-.867-.703-1.57-1.57-1.57-.867 0-1.57.703-1.57 1.57 0 .868.703 1.571 1.57 1.571zM107.672 109.9h3.937M107.672 111.986h3.937M107.672 114.078h2.162M104.52 113.557c.867 0 1.57-.703 1.57-1.571 0-.867-.703-1.57-1.57-1.57-.868 0-1.571.703-1.571 1.57 0 .868.703 1.571 1.571 1.571zM118.523 109.9h3.938M118.523 111.986h3.938M118.523 114.078h2.163M115.371 113.557c.867 0 1.57-.703 1.57-1.571 0-.867-.703-1.57-1.57-1.57-.867 0-1.57.703-1.57 1.57 0 .868.703 1.571 1.57 1.571z"/>
    <path fill="#EEE3F9" d="M27.732 111.248c3.748 0 6.786-3.038 6.786-6.785 0-3.747-3.038-6.785-6.786-6.785-3.747 0-6.785 3.038-6.785 6.785 0 3.747 3.038 6.785 6.785 6.785z"/>
    <path stroke="#5B1A8A" stroke-linecap="round" stroke-linejoin="round" stroke-width="2" d="M27.732 111.248c3.748 0 6.786-3.038 6.786-6.785 0-3.747-3.038-6.785-6.786-6.785-3.747 0-6.785 3.038-6.785 6.785 0 3.747 3.038 6.785 6.785 6.785z"/>
    <path fill="#EEE3F9" d="M44.637 111.248c3.747 0 6.785-3.038 6.785-6.785 0-3.747-3.038-6.785-6.785-6.785-3.748 0-6.785 3.038-6.785 6.785 0 3.747 3.037 6.785 6.785 6.785z"/>
    <path stroke="#5B1A8A" stroke-linecap="round" stroke-linejoin="round" stroke-width="2" d="M44.637 111.248c3.747 0 6.785-3.038 6.785-6.785 0-3.747-3.038-6.785-6.785-6.785-3.748 0-6.785 3.038-6.785 6.785 0 3.747 3.037 6.785 6.785 6.785z"/>
    <path fill="#EEE3F9" d="M61.535 111.248c3.748 0 6.785-3.038 6.785-6.785 0-3.747-3.037-6.785-6.785-6.785-3.747 0-6.785 3.038-6.785 6.785 0 3.747 3.038 6.785 6.785 6.785z"/>
    <path stroke="#5B1A8A" stroke-linecap="round" stroke-linejoin="round" stroke-width="2" d="M61.535 111.248c3.748 0 6.785-3.038 6.785-6.785 0-3.747-3.037-6.785-6.785-6.785-3.747 0-6.785 3.038-6.785 6.785 0 3.747 3.038 6.785 6.785 6.785z"/>
</svg>
